<svg width="601" height="400" viewBox="0 0 601 400" fill="none" xmlns="http://www.w3.org/2000/svg">
<g clip-path="url(#clip0_3_1790)">
<path d="M304.455 112.771C299.105 103.923 292.766 94.4757 282.838 91.5865C271.34 88.2406 259.53 94.8873 249.512 101.446C219.552 121.062 190.7 142.32 163.088 165.122L163.118 165.466C184.615 163.983 206.112 162.501 227.609 161.019C243.14 159.947 259.205 158.729 272.931 151.381C278.139 148.593 283.217 144.869 289.118 144.609C296.451 144.287 302.845 149.408 307.869 154.758C337.591 186.408 346.192 234.807 379.536 262.614C358.51 210.76 333.404 160.655 304.455 112.771Z" fill="#F2F2F2"/>
<path d="M487.149 381.215C483.862 377.065 482.519 376.093 479.277 371.905C452.879 337.763 428.067 302.467 404.841 266.019C389.065 241.265 374.071 216.035 359.86 190.33C353.094 178.109 346.514 165.793 340.119 153.381C335.157 143.756 330.305 134.075 325.565 124.335C324.209 121.554 322.891 118.759 321.581 115.958C318.492 109.371 315.461 102.753 312.206 96.2556C308.497 88.8505 303.982 81.0871 297.171 76.112C294.072 73.7549 290.366 72.3287 286.486 72.0001C280.941 71.642 275.825 73.9313 271.017 76.4317C235.832 94.7784 202.893 117.781 173.099 143.955C143.229 170.187 116.531 199.824 93.5473 232.261C92.8442 233.265 91.1814 232.306 91.8911 231.295C94.6858 227.343 97.5357 223.434 100.441 219.567C136.567 171.52 180.863 130.203 231.305 97.5026C239.791 92.0031 248.437 86.7615 257.242 81.7777C261.68 79.2646 266.137 76.7834 270.671 74.4557C275.116 72.1727 279.835 70.12 284.912 70.0433C302.191 69.7747 311.138 89.3428 317.283 102.51C319.214 106.654 321.169 110.785 323.147 114.903C330.623 130.538 338.386 146.031 346.437 161.381C351.406 170.858 356.483 180.279 361.67 189.646C377.81 218.812 394.965 247.389 413.135 275.375C437.205 312.445 461.084 345.193 488.505 379.86C489.259 380.819 487.91 382.187 487.149 381.215Z" fill="#E4E4E4"/>
<path d="M171.391 134.292C170.388 133.173 169.39 132.054 168.38 130.935C160.412 122.123 151.862 113.413 140.92 108.361C135.703 105.876 130.008 104.556 124.23 104.492C118.257 104.511 112.419 106.078 106.9 108.271C104.291 109.314 101.739 110.497 99.2261 111.757C96.3547 113.202 93.5345 114.743 90.7274 116.297C85.4579 119.213 80.2568 122.257 75.1241 125.429C64.9114 131.74 55.0186 138.534 45.4456 145.809C40.483 149.582 35.6229 153.479 30.8652 157.499C26.44 161.233 22.1044 165.068 17.8582 169.003C16.9502 169.841 15.5944 168.485 16.5025 167.647C17.6215 166.605 18.7535 165.569 19.8854 164.546C23.0828 161.655 26.3314 158.82 29.6312 156.041C35.6485 150.963 41.8217 146.082 48.1506 141.397C57.9923 134.107 68.1728 127.311 78.6921 121.01C83.9488 117.864 89.2778 114.85 94.6792 111.968C96.3101 111.098 97.96 110.247 99.6289 109.442C103.416 107.531 107.351 105.93 111.395 104.652C117.125 102.799 123.186 102.203 129.167 102.906C134.941 103.746 140.504 105.671 145.563 108.578C156.306 114.583 164.639 123.868 172.747 132.93C173.566 133.851 172.216 135.213 171.391 134.292Z" fill="#E4E4E4"/>
<path d="M391.516 225.608L417.26 216.193L430.041 211.518C434.204 209.995 438.357 208.262 442.66 207.172C446.4 206.103 450.371 206.154 454.082 207.317C457.392 208.542 460.421 210.42 462.991 212.839C465.616 215.257 468.058 217.865 470.298 220.643C473.08 223.987 475.822 227.366 478.576 230.735C489.942 244.635 501.235 258.596 512.452 272.617C523.67 286.638 534.812 300.719 545.88 314.859C556.974 329.034 567.992 343.268 578.934 357.561C580.275 359.312 581.614 361.064 582.952 362.817C583.691 363.785 585.358 362.831 584.608 361.849C573.586 347.412 562.486 333.034 551.31 318.715C540.106 304.362 528.825 290.07 517.466 275.838C506.108 261.607 494.673 247.438 483.161 233.33C480.293 229.816 477.421 226.305 474.543 222.798C472.116 219.84 469.716 216.85 467.054 214.096C462.167 209.042 456.062 204.576 448.754 204.455C444.457 204.384 440.298 205.747 436.306 207.191C432.002 208.748 427.709 210.334 423.411 211.906L397.487 221.388L391.006 223.758C389.856 224.179 390.353 226.034 391.516 225.608Z" fill="#E4E4E4"/>
<path d="M137.532 119.449C124.45 112.726 107.696 114.042 95.6748 122.443C118.605 126.399 141.285 131.692 163.597 138.295C154.332 132.866 147.084 124.358 137.532 119.449Z" fill="#F2F2F2"/>
<path d="M95.5461 122.419L93.0276 124.467C93.8795 123.75 94.7651 123.078 95.6749 122.443C95.6319 122.435 95.5891 122.427 95.5461 122.419Z" fill="#F2F2F2"/>
<path d="M462.021 225.702C459.487 222.618 456.747 219.388 452.957 218.135L449.418 218.275C476.357 265.876 512.739 307.47 556.333 340.503C524.895 302.236 493.458 263.969 462.021 225.702Z" fill="#F2F2F2"/>
<path d="M241.963 200.256C243.6 206.205 247.29 211.384 252.378 214.876C254.346 216.215 256.673 217.5 257.346 219.783C257.7 221.238 257.482 222.774 256.737 224.073C255.993 225.355 255.087 226.537 254.043 227.59L253.948 227.947C249.066 225.054 244.422 221.394 241.725 216.401C239.028 211.408 238.652 204.864 241.963 200.256Z" fill="#F2F2F2"/>
<path d="M404.496 341.862C406.134 347.812 409.823 352.991 414.912 356.482C416.879 357.822 419.206 359.106 419.879 361.389C420.233 362.845 420.015 364.38 419.27 365.679C418.526 366.962 417.621 368.144 416.576 369.196L416.481 369.553C411.599 366.66 406.955 363.001 404.258 358.008C401.561 353.015 401.185 346.471 404.496 341.862Z" fill="#F2F2F2"/>
<path d="M80.1271 332.096C81.7647 338.046 85.4542 343.225 90.5426 346.716C92.5098 348.055 94.8373 349.34 95.5103 351.623C95.8643 353.078 95.6462 354.614 94.9009 355.913C94.157 357.196 93.2518 358.377 92.2074 359.43L92.1121 359.787C87.2302 356.894 82.5858 353.234 79.8891 348.241C77.1924 343.248 76.816 336.704 80.1271 332.096Z" fill="#F2F2F2"/>
<path d="M453.395 71.9449C473.043 71.9449 488.971 56.017 488.971 36.3689C488.971 16.7209 473.043 0.792969 453.395 0.792969C433.747 0.792969 417.819 16.7209 417.819 36.3689C417.819 56.017 433.747 71.9449 453.395 71.9449Z" fill="#10B981"/>
<path d="M517.596 9.07318C500.354 6.74264 480.67 16.0619 476.201 32.8767C475.075 29.887 473.028 27.3327 470.355 25.5829C467.682 23.8331 464.522 22.9783 461.331 23.142C458.141 23.3057 455.085 24.4795 452.605 26.4937C450.125 28.508 448.35 31.2584 447.536 34.3476L449.51 35.7614C486.458 43.7515 524.706 43.5786 561.58 35.2547C549.587 22.6504 534.838 11.4037 517.596 9.07318Z" fill="#F0F0F0"/>
<path d="M443.654 56.508C426.412 54.1775 406.728 63.4967 402.259 80.3115C401.133 77.3218 399.086 74.7676 396.413 73.0177C393.74 71.2679 390.58 70.4131 387.389 70.5768C384.199 70.7405 381.143 71.9143 378.663 73.9285C376.183 75.9428 374.408 78.6932 373.594 81.7824L375.568 83.1962C412.516 91.1863 450.763 91.0134 487.638 82.6895C475.645 70.0852 460.896 58.8385 443.654 56.508Z" fill="#F0F0F0"/>
<path d="M594.138 65.4771C594.067 65.4772 593.995 65.4662 593.927 65.4444C409.486 7.11502 246.926 14.7426 143.034 31.4127C128.895 33.6805 114.718 36.2998 100.898 39.1984C97.3695 39.9375 93.709 40.7297 90.0182 41.5547C85.6103 42.5363 81.2611 43.5473 77.0907 44.5582C75.2895 44.9846 73.5236 45.4145 71.7928 45.8477C69.1712 46.4949 66.511 47.1693 63.6594 47.9104C60.473 48.732 57.2355 49.5937 54.0348 50.4718C54.0231 50.476 54.0112 50.4794 53.999 50.4821L53.9994 50.4827C50.3842 51.4698 46.788 52.4855 43.3104 53.4999C41.4282 54.0435 39.6107 54.5796 37.8698 55.1089C37.6753 55.1627 37.503 55.2145 37.3283 55.2676L36.9543 55.3814C36.7376 55.4475 36.5238 55.5122 36.3099 55.5735L36.2962 55.5776L36.2966 55.5783L35.7305 55.7541C35.0554 55.9585 34.3966 56.158 33.7488 56.3569C16.6271 61.635 7.21465 65.3899 7.12167 65.4267C7.03664 65.4608 6.94573 65.4778 6.85413 65.4767C6.76253 65.4757 6.67203 65.4566 6.5878 65.4206C6.50358 65.3845 6.42726 65.3323 6.36324 65.2668C6.29921 65.2013 6.24871 65.1238 6.21462 65.0387C6.18054 64.9537 6.16355 64.8628 6.1646 64.7712C6.16565 64.6796 6.18473 64.5891 6.22075 64.5049C6.25678 64.4207 6.30904 64.3443 6.37455 64.2803C6.44006 64.2163 6.51755 64.1658 6.60258 64.1317C6.69625 64.0949 16.1546 60.321 33.3387 55.0231C33.9889 54.8235 34.6494 54.6239 35.3265 54.4189L35.8524 54.2554C35.8705 54.2486 35.8885 54.2431 35.9069 54.2377C36.1198 54.1771 36.3323 54.1123 36.5483 54.0469L36.9229 53.9332C37.1096 53.8766 37.2935 53.8208 37.4819 53.769C39.2108 53.2431 41.0344 52.7056 42.9214 52.16C46.4004 51.1449 50 50.1293 53.6179 49.1408C53.6292 49.1367 53.6407 49.134 53.652 49.1306C56.8639 48.2498 60.1133 47.3839 63.31 46.5597C66.166 45.8178 68.8312 45.142 71.4573 44.4935C73.1955 44.0609 74.9648 43.6302 76.7654 43.2012C80.9406 42.1889 85.2987 41.1767 89.7143 40.193C93.411 39.3673 97.0776 38.573 100.612 37.8332C114.454 34.9299 128.652 32.3065 142.813 30.0353C246.854 13.3414 409.647 5.70148 594.348 64.1146C594.507 64.1647 594.642 64.2701 594.73 64.4115C594.818 64.553 594.853 64.7212 594.827 64.8858C594.802 65.0504 594.718 65.2005 594.592 65.309C594.466 65.4174 594.305 65.477 594.138 65.4771Z" fill="#CCCCCC"/>
<path d="M183.952 293.66C183.711 292.953 183.304 292.315 182.767 291.797C182.568 291.613 182.353 291.447 182.125 291.302C180.304 290.088 177.584 289.816 175.854 291.302C175.679 291.453 175.518 291.619 175.372 291.797C174.856 292.432 174.326 293.053 173.782 293.66C172.889 294.678 171.975 295.662 171.02 296.617C170.747 296.882 170.475 297.155 170.196 297.42C170.036 297.58 169.876 297.733 169.715 297.887C169.101 298.473 168.473 299.038 167.839 299.596C167.504 299.896 167.169 300.189 166.827 300.475C166.318 300.9 165.809 301.326 165.293 301.738C165.244 301.772 165.195 301.807 165.146 301.849C165.132 301.856 165.125 301.87 165.111 301.877C165.104 301.877 165.097 301.877 165.09 301.891C165.071 301.898 165.055 301.91 165.041 301.926C164.888 302.031 164.783 302.1 164.707 302.163C164.734 302.149 164.762 302.128 164.79 302.114C164.665 302.212 164.532 302.31 164.407 302.407C163.186 303.307 161.937 304.172 160.661 304.981C157.502 307.003 154.185 308.764 150.741 310.248C150.511 310.339 150.274 310.436 150.037 310.527C141.02 314.221 131.24 315.662 121.541 314.726C120.55 314.65 119.56 314.545 118.569 314.412C117.425 314.245 116.288 314.043 115.158 313.812C110.856 312.954 106.647 311.683 102.588 310.018C97.5113 307.693 92.6828 304.86 88.1764 301.563C87.4788 301.068 86.7743 300.573 86.0697 300.091C86.8719 298.124 87.6602 296.157 88.4275 294.176C88.8112 293.22 89.1809 292.265 89.5436 291.302C92.3967 283.887 95.0753 276.402 97.6424 268.889C100.237 261.279 102.686 253.624 104.988 245.925C105.225 245.144 105.455 244.363 105.678 243.581C106.885 239.514 108.043 235.438 109.152 231.353C109.257 230.955 109.369 230.565 109.466 230.167C109.787 228.995 110.101 227.823 110.408 226.651C111.105 224.008 109.529 220.848 106.753 220.213C105.416 219.87 103.998 220.06 102.799 220.741C101.599 221.423 100.711 222.544 100.321 223.868C100.021 224.998 99.7211 226.121 99.4142 227.251C97.9423 232.713 96.3937 238.157 94.7684 243.581C94.5312 244.363 94.2941 245.144 94.0569 245.925C90.4714 257.742 86.5348 269.44 82.2471 281.02C81.7309 282.422 81.2077 283.819 80.6775 285.212C80.4194 285.896 80.1613 286.579 79.8963 287.263C79.387 288.609 78.8639 289.956 78.3407 291.302C78.0407 292.09 77.7338 292.878 77.4269 293.66C77.2246 294.155 77.0293 294.65 76.8339 295.139C74.845 294.424 72.7844 293.929 70.6884 293.66L70.3535 293.618C68.7285 293.422 67.085 293.436 65.4636 293.66C63.0368 293.943 60.7018 294.756 58.6237 296.041C56.5457 297.326 54.7752 299.051 53.4375 301.096C50.1101 306.335 50.152 313.826 54.8187 318.277C59.6249 322.86 66.9006 322.825 72.5579 319.958C75.5558 318.336 78.0837 315.967 79.8963 313.08C80.5907 312.034 81.2287 310.951 81.8076 309.836C81.9541 309.934 82.1006 310.032 82.2471 310.136C82.8051 310.527 83.3632 310.924 83.9143 311.315C87.1252 313.641 90.5089 315.719 94.036 317.53C101.62 321.301 109.784 323.77 118.186 324.834C118.374 324.855 118.555 324.883 118.744 324.904C119.672 325.022 120.606 325.113 121.541 325.19C134.95 326.2 148.375 323.456 160.312 317.265C161.323 316.742 162.326 316.193 163.318 315.619C164.86 314.726 166.367 313.778 167.839 312.773C168.641 312.229 169.422 311.678 170.196 311.099C173.58 308.607 176.734 305.817 179.621 302.763C180.716 301.612 181.764 300.424 182.767 299.198C183.714 298.196 184.26 296.88 184.301 295.501C184.296 294.871 184.178 294.248 183.952 293.66ZM68.4422 310.276C68.5887 310.171 68.7352 310.06 68.8747 309.948C68.8329 310.053 68.6305 310.171 68.4422 310.276ZM70.6814 308.023C70.521 308.204 70.3745 308.385 70.214 308.567C69.7259 309.113 69.2016 309.626 68.6445 310.101C68.5678 310.171 68.4841 310.241 68.4004 310.304C68.3994 310.304 68.3985 310.304 68.3976 310.304C68.3968 310.304 68.396 310.305 68.3954 310.306C68.3947 310.306 68.3942 310.307 68.3939 310.308C68.3935 310.309 68.3933 310.31 68.3934 310.311C68.2926 310.356 68.1947 310.407 68.1004 310.464C67.8004 310.645 67.4935 310.813 67.1796 310.966C66.565 311.193 65.9327 311.368 65.2892 311.49C64.7947 311.526 64.2985 311.53 63.8034 311.503H63.7894C63.4478 311.428 63.1102 311.335 62.778 311.224C62.6105 311.141 62.4501 311.043 62.2897 310.945C62.2269 310.89 62.171 310.834 62.1362 310.799C62.068 310.737 62.0051 310.669 61.9479 310.597C61.9479 310.596 61.9477 310.595 61.9474 310.594C61.947 310.593 61.9465 310.592 61.9459 310.592C61.9452 310.591 61.9444 310.59 61.9436 310.59C61.9427 310.59 61.9418 310.59 61.9409 310.59C61.8641 310.45 61.7804 310.311 61.7037 310.171C61.6998 310.167 61.6973 310.163 61.6968 310.157C61.641 309.983 61.5921 309.801 61.5503 309.62C61.5351 309.302 61.5375 308.983 61.5572 308.664C61.6508 308.219 61.7767 307.78 61.9339 307.353C62.0752 307.05 62.2359 306.756 62.4153 306.474C62.4292 306.446 62.499 306.334 62.5757 306.209C62.5827 306.202 62.5827 306.202 62.5827 306.195C62.6873 306.076 62.7919 305.951 62.9036 305.839C63.0919 305.63 63.2942 305.449 63.4965 305.26C63.8899 305.003 64.2975 304.768 64.7172 304.556C65.3832 304.319 66.0665 304.135 66.7611 304.005C67.7853 303.923 68.8148 303.933 69.8374 304.033C70.806 304.201 71.7616 304.436 72.6974 304.737C72.1302 305.838 71.4845 306.896 70.7651 307.904C70.7372 307.946 70.7093 307.988 70.6814 308.023ZM62.9244 305.728C62.863 305.826 62.7904 305.918 62.7082 306C62.7635 305.897 62.8368 305.805 62.9244 305.728Z" fill="#3F3D56"/>
<path d="M162.984 222.417C162.921 224.607 162.858 226.798 162.795 228.988C162.663 233.85 162.525 238.715 162.384 243.581C162.237 249.057 162.084 254.531 161.923 260.002C161.846 262.827 161.767 265.652 161.686 268.477C161.47 276.088 161.256 283.696 161.044 291.302C161.023 292.09 160.995 292.871 160.975 293.66C160.87 297.434 160.765 301.207 160.661 304.981C160.542 309.076 160.426 313.171 160.312 317.265C160.228 320.335 160.142 323.406 160.054 326.48C159.426 348.754 158.798 371.027 158.17 393.3C158.144 394.68 157.584 395.995 156.609 396.97C155.633 397.946 154.318 398.506 152.939 398.532C151.554 398.521 150.23 397.966 149.251 396.987C148.273 396.009 147.718 394.684 147.707 393.3C148.056 380.772 148.409 368.244 148.767 355.715C149.081 344.387 149.4 333.058 149.723 321.73C149.827 317.998 149.932 314.263 150.037 310.527C150.197 304.904 150.355 299.282 150.511 293.66C150.532 292.871 150.56 292.09 150.581 291.302C150.595 290.611 150.616 289.928 150.637 289.237C150.943 278.32 151.25 267.401 151.557 256.479C151.683 252.182 151.804 247.883 151.92 243.581C152.06 238.677 152.199 233.776 152.339 228.877C152.401 226.721 152.457 224.573 152.52 222.417C152.547 221.038 153.106 219.722 154.082 218.747C155.057 217.772 156.373 217.212 157.752 217.185C159.136 217.196 160.46 217.751 161.439 218.73C162.418 219.709 162.972 221.033 162.984 222.417Z" fill="#3F3D56"/>
<path d="M449.983 223.869C444.497 244.642 437.94 265.118 430.338 285.214C428.241 290.757 426.095 296.289 423.801 301.755L424.329 300.505C423.305 303.108 421.997 305.591 420.429 307.907C420.323 308.057 420.214 308.205 420.104 308.351C420.646 307.658 420.749 307.521 420.413 307.94C420.235 308.15 420.06 308.36 419.877 308.565C419.389 309.112 418.865 309.625 418.308 310.102C418.168 310.222 418.026 310.339 417.882 310.454L418.536 309.945C418.46 310.124 417.927 310.362 417.761 310.463C417.224 310.788 416.663 311.072 416.084 311.313L417.333 310.786C416.384 311.168 415.393 311.44 414.382 311.596L415.773 311.409C414.779 311.546 413.771 311.557 412.774 311.441L414.165 311.628C413.35 311.515 412.552 311.301 411.79 310.988L413.04 311.515C412.634 311.338 412.242 311.129 411.869 310.89C411.68 310.767 411.098 310.326 411.858 310.908C412.649 311.512 411.96 310.959 411.797 310.799C411.662 310.665 411.539 310.52 411.407 310.384C410.792 309.753 412.102 311.47 411.684 310.732C411.46 310.362 411.256 309.981 411.071 309.59L411.598 310.84C411.358 310.245 411.188 309.624 411.091 308.99L411.278 310.381C411.178 309.592 411.177 308.794 411.275 308.006L411.088 309.397C411.216 308.516 411.449 307.654 411.782 306.829L411.255 308.079C411.487 307.524 411.762 306.988 412.077 306.476C412.222 306.211 412.392 305.961 412.585 305.728C412.619 305.74 411.7 306.784 412.188 306.256C412.315 306.119 412.435 305.973 412.564 305.837C412.77 305.618 412.992 305.417 413.209 305.21C413.938 304.517 412.19 305.884 413.03 305.335C413.64 304.934 414.281 304.585 414.948 304.289L413.698 304.817C414.815 304.358 415.986 304.044 417.183 303.882L415.792 304.069C417.291 303.897 418.805 303.914 420.299 304.122L418.908 303.935C420.8 304.222 422.649 304.742 424.413 305.484L423.163 304.957C426.923 306.571 430.253 308.967 433.577 311.317C436.787 313.642 440.17 315.719 443.696 317.53C451.28 321.301 459.444 323.771 467.847 324.836C479.898 326.312 492.127 324.738 503.411 320.259C514.695 315.78 524.674 308.538 532.432 299.199C533.378 298.195 533.924 296.879 533.964 295.5C533.954 294.114 533.404 292.787 532.432 291.8C530.512 290.038 526.887 289.541 525.033 291.8C523.276 293.945 521.388 295.978 519.378 297.888C518.44 298.778 517.477 299.641 516.488 300.476C515.924 300.953 515.352 301.42 514.772 301.879C514.497 302.095 513.643 302.673 514.955 301.741C514.654 301.954 514.366 302.188 514.069 302.407C509.676 305.646 504.915 308.353 499.886 310.474L501.136 309.947C495.739 312.21 490.071 313.763 484.275 314.566L485.666 314.38C479.702 315.164 473.662 315.155 467.701 314.353L469.091 314.54C463.132 313.721 457.303 312.134 451.752 309.817L453.002 310.344C447.645 307.974 442.561 305.029 437.839 301.561C435.382 299.742 432.79 298.111 430.087 296.682C426.938 295.074 423.528 294.037 420.016 293.621C413.431 292.846 406.722 295.411 403.102 301.099C399.771 306.334 399.814 313.825 404.479 318.277C409.284 322.862 416.56 322.823 422.222 319.955C427.675 317.193 430.951 311.455 433.254 306.044C438.438 293.868 443.027 281.411 447.303 268.89C451.533 256.502 455.37 243.99 458.812 231.351C459.238 229.786 459.658 228.219 460.072 226.651C460.771 224.008 459.193 220.847 456.418 220.215C455.081 219.871 453.663 220.059 452.462 220.741C451.261 221.423 450.372 222.544 449.983 223.869Z" fill="#3F3D56"/>
<path d="M502.184 222.417L500.3 289.239L498.427 355.713L497.368 393.301C497.38 394.685 497.935 396.008 498.913 396.987C499.892 397.966 501.216 398.521 502.6 398.532C503.979 398.506 505.294 397.946 506.269 396.971C507.245 395.995 507.805 394.68 507.831 393.301L509.714 326.478L511.588 260.004L512.647 222.417C512.635 221.033 512.08 219.709 511.102 218.73C510.123 217.752 508.799 217.197 507.415 217.185C506.036 217.212 504.721 217.771 503.745 218.747C502.77 219.722 502.21 221.038 502.184 222.417Z" fill="#3F3D56"/>
<path opacity="0.2" d="M321.096 374.644H322.721V300.673H360.619V299.052H322.721V267.84H351.988C351.559 267.294 351.117 266.756 350.663 266.224H322.721V245.609C322.183 245.38 321.642 245.159 321.096 244.951V266.224H289.251V239.81C288.705 239.835 288.168 239.873 287.626 239.919V266.224H262.221V246.517C261.675 246.758 261.138 247.012 260.605 247.279V266.224H239.248V267.84H260.605V299.052H239.248V300.673H260.605V374.644H262.221V300.673C265.557 300.672 268.861 301.329 271.944 302.605C275.026 303.882 277.827 305.753 280.187 308.112C282.546 310.472 284.417 313.272 285.694 316.355C286.97 319.438 287.627 322.742 287.626 326.078V374.644H289.251V300.673H321.096V374.644ZM262.221 299.052V267.84H287.626V299.052H262.221ZM289.251 299.052V267.84H289.888C293.987 267.84 298.045 268.648 301.832 270.217C305.618 271.785 309.058 274.084 311.956 276.983C314.854 279.881 317.153 283.322 318.721 287.109C320.289 290.895 321.096 294.954 321.096 299.052H289.251Z" fill="black"/>
<path d="M311.175 352.465C309.13 361.588 304.231 369.822 297.189 375.973C296.672 376.419 296.156 376.852 295.619 377.277C294.315 377.396 293.02 377.517 291.734 377.64C290.666 377.737 289.613 377.842 288.567 377.94L288.378 377.961L288.246 376.817L287.716 372.185C285.659 368.827 284.384 365.05 283.986 361.133C283.587 357.215 284.075 353.259 285.414 349.556C287.255 344.589 290.59 340.201 293.868 335.849C298.395 329.835 302.797 323.892 302.958 316.561C305.185 319.411 307.037 322.537 308.468 325.859C307.118 326.495 305.905 327.388 304.897 328.489C304.611 328.803 304.325 329.243 304.52 329.619C304.688 329.94 305.106 330.017 305.469 330.059C306.341 330.149 307.22 330.24 308.092 330.331C308.789 330.407 309.487 330.477 310.184 330.554C311.028 333.324 311.601 336.169 311.893 339.05C312.363 343.532 312.121 348.059 311.175 352.465Z" fill="#3F3D56"/>
<path d="M334.334 334.182C330.219 337.174 327.812 341.478 325.942 346.222C324.026 346.835 322.303 347.936 320.941 349.416C320.655 349.73 320.369 350.17 320.564 350.546C320.732 350.867 321.15 350.944 321.513 350.986C322.385 351.077 323.264 351.167 324.136 351.258C322.266 356.866 320.55 362.67 317.244 367.407C315.045 370.534 312.178 373.133 308.852 375.017C307.945 375.534 307.009 375.997 306.048 376.405C302.504 376.677 299.028 376.968 295.619 377.277C294.315 377.396 293.02 377.517 291.734 377.64C290.666 377.738 289.613 377.842 288.567 377.94C288.56 377.556 288.56 377.173 288.567 376.789C288.787 366.569 292.547 356.742 299.205 348.984C299.519 348.621 299.839 348.265 300.167 347.91C303.54 344.307 307.506 341.311 311.893 339.051C318.806 335.456 326.554 333.775 334.334 334.182Z" fill="#10B981"/>
<path d="M292.941 374.061L292.138 376.433L291.734 377.64C290.666 377.738 289.613 377.842 288.567 377.94L288.378 377.961C287.22 378.079 286.069 378.198 284.918 378.317C284.619 377.968 284.319 377.612 284.026 377.249C276.744 368.432 273.249 357.091 274.304 345.705C275.359 334.319 280.878 323.814 289.655 316.484C288.734 321.304 289.808 325.922 291.573 330.505C291.385 330.582 291.204 330.659 291.029 330.742C289.679 331.378 288.466 332.271 287.458 333.372C287.172 333.686 286.886 334.126 287.081 334.502C287.248 334.823 287.667 334.9 288.03 334.942C288.902 335.032 289.781 335.123 290.652 335.214C291.35 335.291 292.048 335.36 292.745 335.437C293.073 335.472 293.401 335.507 293.729 335.542C293.778 335.646 293.819 335.744 293.868 335.849C295.856 340.16 297.998 344.491 299.205 348.984C299.507 350.111 299.745 351.254 299.916 352.409C300.453 356.31 300.105 360.282 298.898 364.031C297.69 367.779 295.654 371.207 292.941 374.061Z" fill="#10B981"/>
<path d="M363.156 272.887C357.151 261.173 347.848 251.317 336.905 244.075C325.928 236.842 313.332 232.437 300.239 231.253C298.523 231.097 296.803 231.006 295.078 230.979C293.04 230.949 262.386 239.791 252.117 247.011C241.854 254.143 233.411 263.588 227.47 274.584C221.539 285.64 218.622 298.061 219.011 310.602C219.52 323.217 223.036 335.528 229.267 346.509C235.414 357.455 244.141 366.733 254.69 373.537C265.389 380.364 276.137 398.465 288.769 399.104C301.497 399.748 316.012 382.673 327.62 377.489C339.228 372.261 349.264 364.082 356.727 353.768C363.978 343.66 368.67 331.943 370.398 319.623C372.194 307.009 371.357 294 367.049 281.943C365.944 278.845 364.644 275.82 363.156 272.887C361.915 270.442 358.276 269.541 355.998 271.01C354.825 271.732 353.975 272.88 353.625 274.213C353.276 275.546 353.454 276.962 354.122 278.168C354.851 279.604 355.528 281.063 356.155 282.547L355.628 281.297C357.999 287 359.612 292.989 360.425 299.112L360.238 297.721C361.102 304.363 361.086 311.091 360.192 317.729L360.378 316.338C359.474 322.976 357.702 329.466 355.109 335.643L355.636 334.393C354.302 337.544 352.747 340.598 350.982 343.53C350.088 345.011 349.139 346.458 348.136 347.87C347.695 348.489 347.241 349.098 346.783 349.705C346.186 350.497 347.597 348.671 346.98 349.448C346.875 349.58 346.77 349.713 346.665 349.845C346.348 350.241 346.027 350.633 345.701 351.022C343.526 353.617 341.153 356.039 338.602 358.265C337.967 358.82 337.321 359.362 336.664 359.891C336.337 360.155 336.014 360.43 335.673 360.676C335.686 360.667 336.775 359.839 336.131 360.319C335.928 360.47 335.727 360.624 335.524 360.774C334.171 361.777 332.781 362.728 331.356 363.629C328.075 365.696 324.633 367.495 321.063 369.009L322.313 368.482C316.155 371.074 309.683 372.845 303.063 373.749L304.453 373.562C297.837 374.457 291.13 374.469 284.511 373.598L285.901 373.785C279.885 372.977 274 371.386 268.396 369.052L269.645 369.579C266.4 368.209 263.27 366.578 260.287 364.703C258.811 363.773 257.373 362.785 255.973 361.74C255.774 361.591 255.576 361.44 255.377 361.29C254.738 360.808 255.836 361.645 255.844 361.651C255.473 361.385 255.116 361.099 254.774 360.797C254.098 360.246 253.432 359.683 252.778 359.107C250.158 356.8 247.711 354.303 245.458 351.637C244.894 350.97 244.342 350.293 243.802 349.606C243.568 349.309 243.142 348.706 244.084 349.975C243.96 349.808 243.831 349.645 243.706 349.478C243.405 349.08 243.109 348.678 242.816 348.273C241.792 346.856 240.818 345.403 239.895 343.916C237.809 340.55 235.989 337.026 234.45 333.377L234.978 334.627C232.46 328.637 230.739 322.343 229.857 315.906L230.044 317.297C229.249 311.363 229.237 305.351 230.01 299.414L229.823 300.805C230.616 295.056 232.162 289.437 234.424 284.092L233.896 285.342C235.319 281.996 236.997 278.764 238.915 275.676C239.876 274.131 240.894 272.623 241.969 271.153C242.213 270.819 242.46 270.486 242.71 270.157C242.936 269.858 243.558 269.115 242.497 270.427C242.601 270.299 242.701 270.166 242.804 270.037C243.394 269.289 243.998 268.553 244.617 267.829C246.959 265.087 249.496 262.518 252.209 260.141C252.894 259.54 253.591 258.952 254.298 258.377C254.619 258.115 254.943 257.857 255.268 257.601C255.398 257.498 255.53 257.398 255.66 257.295C254.266 258.403 255.273 257.596 255.589 257.359C257.046 256.267 258.543 255.23 260.078 254.247C263.491 252.065 267.081 250.173 270.811 248.591L269.561 249.119C274.975 246.846 298.958 241.481 303.32 242.067L301.929 241.88C308.34 242.775 314.606 244.506 320.568 247.029L319.318 246.502C322.339 247.785 325.275 249.26 328.107 250.917C329.523 251.747 330.91 252.622 332.27 253.542C332.913 253.977 333.55 254.423 334.18 254.878C334.495 255.105 334.808 255.335 335.119 255.567C335.292 255.696 335.464 255.827 335.636 255.957C336.361 256.5 334.638 255.17 335.398 255.771C337.941 257.769 340.357 259.925 342.63 262.225C343.747 263.362 344.825 264.536 345.865 265.745C346.398 266.365 346.92 266.995 347.432 267.633C347.686 267.951 348.551 269.099 347.49 267.692C347.75 268.036 348.012 268.378 348.268 268.724C350.472 271.708 352.43 274.866 354.122 278.168C355.372 280.608 358.995 281.517 361.28 280.045C362.453 279.322 363.304 278.175 363.653 276.842C364.003 275.509 363.825 274.092 363.156 272.887Z" fill="#3F3D56"/>
<path d="M302.196 358.266C301.656 358.29 301.121 358.149 300.664 357.859C300.208 357.57 299.851 357.148 299.642 356.649C299.434 356.15 299.383 355.599 299.498 355.071C299.613 354.543 299.888 354.063 300.285 353.696C300.351 353.431 300.399 353.242 300.466 352.977C300.442 352.92 300.418 352.862 300.394 352.805C297.966 347.017 282.477 363.152 281.807 368.592C281.512 370.997 281.637 373.434 282.175 375.796C277.157 364.851 274.552 352.956 274.535 340.916C274.534 337.895 274.702 334.876 275.038 331.873C275.316 329.412 275.701 326.968 276.194 324.541C278.883 311.376 284.657 299.036 293.041 288.535C297.836 288.803 302.038 288.072 302.444 278.78C302.516 277.127 303.742 275.695 304.013 274.067C303.555 274.127 303.09 274.164 302.632 274.194C302.489 274.202 302.339 274.209 302.197 274.217L302.143 274.219C301.64 274.242 301.141 274.119 300.706 273.864C300.272 273.61 299.92 273.235 299.693 272.785C299.466 272.336 299.374 271.83 299.428 271.329C299.482 270.829 299.68 270.354 299.997 269.963C300.195 269.72 300.393 269.477 300.591 269.234C300.891 268.859 301.198 268.491 301.499 268.116C301.533 268.08 301.566 268.043 301.596 268.003C301.941 267.575 302.287 267.155 302.632 266.727C302.002 265.749 301.154 264.93 300.155 264.334C296.696 262.307 291.923 263.711 289.424 266.84C286.918 269.969 286.445 274.36 287.315 278.269C288.171 281.596 289.587 284.753 291.503 287.605C291.315 287.845 291.12 288.077 290.932 288.318C287.503 292.728 284.514 297.463 282.008 302.456C282.717 296.918 274.048 276.919 270.695 272.683C266.668 267.595 258.41 269.816 257.701 276.266C257.694 276.328 257.687 276.391 257.681 276.453C258.178 276.734 258.666 277.032 259.143 277.348C259.742 277.748 260.206 278.32 260.475 278.989C260.743 279.657 260.804 280.392 260.648 281.095C260.492 281.799 260.127 282.439 259.601 282.931C259.076 283.424 258.413 283.746 257.701 283.856L257.628 283.868C250.962 293.385 272.331 318.156 277.68 312.594C275.162 319.729 273.583 327.16 272.982 334.702C272.642 339.152 272.662 343.621 273.042 348.068L273.019 347.91C271.831 338.226 251.443 323.828 245.489 325.027C242.059 325.718 238.681 325.561 239.202 329.021C239.21 329.076 239.219 329.131 239.227 329.187C240.151 329.563 241.051 329.996 241.921 330.485C242.419 330.766 242.907 331.064 243.384 331.379C243.983 331.78 244.447 332.352 244.716 333.02C244.984 333.689 245.044 334.423 244.889 335.127C244.733 335.83 244.368 336.47 243.842 336.963C243.316 337.456 242.654 337.778 241.942 337.888L241.869 337.899C241.816 337.907 241.771 337.914 241.719 337.922C238.685 348.362 261.186 365.21 274.866 359.849H274.873C276.229 365.74 278.193 371.475 280.734 376.959H301.671C301.746 376.727 301.814 376.487 301.881 376.254C299.943 376.376 297.998 376.26 296.088 375.909C297.641 374.003 299.195 372.082 300.748 370.175C300.783 370.14 300.815 370.102 300.846 370.063C301.634 369.087 302.429 368.119 303.217 367.144L303.217 367.143C303.259 364.152 302.916 361.169 302.196 358.266L302.196 358.266ZM278.22 311.101L278.231 311.086L278.22 311.116V311.101ZM273.582 352.908L273.402 352.503C273.41 352.21 273.41 351.917 273.402 351.617C273.402 351.535 273.387 351.452 273.387 351.369C273.455 351.887 273.515 352.405 273.59 352.923L273.582 352.908Z" fill="#3F3D56"/>
<path d="M66.9425 314.698C71.1804 314.698 74.6158 311.263 74.6158 307.025C74.6158 302.787 71.1804 299.352 66.9425 299.352C62.7047 299.352 59.2693 302.787 59.2693 307.025C59.2693 311.263 62.7047 314.698 66.9425 314.698Z" fill="#3F3D56"/>
<path d="M159.021 398.407C163.259 398.407 166.695 394.971 166.695 390.733C166.695 386.495 163.259 383.06 159.021 383.06C154.784 383.06 151.348 386.495 151.348 390.733C151.348 394.971 154.784 398.407 159.021 398.407Z" fill="#3F3D56"/>
<path d="M508.503 398.407C512.741 398.407 516.176 394.971 516.176 390.733C516.176 386.495 512.741 383.06 508.503 383.06C504.265 383.06 500.83 386.495 500.83 390.733C500.83 394.971 504.265 398.407 508.503 398.407Z" fill="#3F3D56"/>
<path d="M527.337 300.747C531.575 300.747 535.011 297.312 535.011 293.074C535.011 288.836 531.575 285.401 527.337 285.401C523.099 285.401 519.664 288.836 519.664 293.074C519.664 297.312 523.099 300.747 527.337 300.747Z" fill="#3F3D56"/>
<path d="M505.015 229.595C509.253 229.595 512.688 226.16 512.688 221.922C512.688 217.684 509.253 214.249 505.015 214.249C500.777 214.249 497.342 217.684 497.342 221.922C497.342 226.16 500.777 229.595 505.015 229.595Z" fill="#3F3D56"/>
<path d="M184.831 293.074C184.827 295.034 184.069 296.917 182.714 298.334C181.36 299.75 179.513 300.592 177.555 300.685C175.597 300.777 173.678 300.114 172.196 298.831C170.714 297.549 169.782 295.746 169.592 293.795C169.402 291.844 169.97 289.895 171.177 288.351C172.385 286.807 174.14 285.786 176.079 285.5C178.018 285.214 179.992 285.684 181.594 286.813C183.196 287.942 184.303 289.644 184.685 291.567C184.783 292.063 184.832 292.568 184.831 293.074Z" fill="#3F3D56"/>
<path d="M338.296 251.917C342.534 251.917 345.97 248.482 345.97 244.244C345.97 240.006 342.534 236.571 338.296 236.571C334.059 236.571 330.623 240.006 330.623 244.244C330.623 248.482 334.059 251.917 338.296 251.917Z" fill="#3F3D56"/>
<path d="M262.261 244.244C262.257 246.204 261.499 248.087 260.144 249.504C258.79 250.921 256.943 251.763 254.985 251.855C253.027 251.948 251.108 251.284 249.626 250.002C248.144 248.719 247.212 246.916 247.022 244.965C246.832 243.014 247.4 241.065 248.607 239.521C249.815 237.977 251.569 236.956 253.508 236.67C255.447 236.384 257.422 236.854 259.024 237.984C260.626 239.113 261.733 240.815 262.115 242.737C262.213 243.233 262.262 243.738 262.261 244.244Z" fill="#3F3D56"/>
<path d="M163.207 221.922C163.202 223.882 162.444 225.765 161.09 227.182C159.735 228.599 157.888 229.44 155.93 229.533C153.972 229.626 152.054 228.962 150.572 227.679C149.089 226.397 148.157 224.594 147.967 222.643C147.778 220.692 148.345 218.743 149.553 217.199C150.76 215.655 152.515 214.634 154.454 214.348C156.393 214.062 158.368 214.532 159.97 215.661C161.572 216.791 162.678 218.493 163.06 220.415C163.159 220.911 163.208 221.416 163.207 221.922Z" fill="#3F3D56"/>
<path d="M418.517 317.489C422.755 317.489 426.19 314.053 426.19 309.815C426.19 305.578 422.755 302.142 418.517 302.142C414.279 302.142 410.844 305.578 410.844 309.815C410.844 314.053 414.279 317.489 418.517 317.489Z" fill="#3F3D56"/>
<path d="M297.837 247.732C304.002 247.732 308.999 242.735 308.999 236.571C308.999 230.407 304.002 225.41 297.837 225.41C291.673 225.41 286.676 230.407 286.676 236.571C286.676 242.735 291.673 247.732 297.837 247.732Z" fill="#3F3D56"/>
<path d="M599.669 398.993L1.33058 399.207C1.2215 399.207 1.11349 399.186 1.01272 399.144C0.911953 399.102 0.820396 399.041 0.74327 398.964C0.666143 398.887 0.604956 398.795 0.563215 398.695C0.521474 398.594 0.5 398.486 0.5 398.377C0.5 398.268 0.521474 398.16 0.563215 398.059C0.604956 397.958 0.666143 397.867 0.74327 397.789C0.820396 397.712 0.911953 397.651 1.01272 397.609C1.11349 397.568 1.2215 397.546 1.33058 397.546L599.669 397.332C599.889 397.332 600.1 397.42 600.255 397.576C600.41 397.732 600.498 397.942 600.498 398.162C600.498 398.382 600.41 398.593 600.255 398.749C600.1 398.905 599.889 398.992 599.669 398.993Z" fill="#CACACA"/>
</g>
<defs>
<clipPath id="clip0_3_1790">
<rect width="600" height="398.415" fill="white" transform="translate(0.5 0.792725)"/>
</clipPath>
</defs>
</svg>
